<?xml version="1.0" encoding="utf-8"?><!DOCTYPE svg ><svg width="1000px" height="1000px" viewBox="0 500 500 500" preserveAspectRatio="none" xmlns="http://www.w3.org/2000/svg"><filter id="blur" x="-12%" y="-12%" width="124%" height="124%"><feGaussianBlur in="SourceGraphic" stdDeviation="6"/></filter><rect style="fill: rgb(182,235,190);" width="1000" height="1000"/><path filter="url(#blur)" d="M 11.185634665783 10.702105789741 C 12.926338619536 8.9614018359877, 988.78213007581 2.320938605004, 993.45624254422 6.9950510734148 C 998.13035501264 11.669163541826,  994.06871245388 988.52424800859, 990.55506928797 992.0378911745 C 987.04142612206 995.55153434041, 12.797397585925 994.77788813874, 8.0588146007083 990.03930515352 C 3.3202316154918 985.30072216831, 9.4449307120302 12.442809743494, 11.185634665783 10.702105789741"  style="fill:rgb(176,232,177);"/><path filter="url(#blur)" d="M 25.011079112691 23.92990854586 C 28.903293153283 20.037694505268, 974.91684284952 5.1896187207889, 985.36815832889 15.640934200156 C 995.81947380825 26.092249679522,  986.73764104687 974.34021854721, 978.8811349279 982.19672466618 C 971.02462880893 990.05323078515, 28.614981002128 988.32335787822, 18.019509447184 977.72788632328 C 7.4240378922397 967.13241476834, 21.118865072099 27.822122586452, 25.011079112691 23.92990854586"  style="fill:rgb(178,229,170);"/><path filter="url(#blur)" d="M 42.099328449069 40.279472752424 C 48.650808956994 33.727992244499, 957.77934783782 8.7353073438991, 975.37128623873 26.327245744807 C 992.96322463964 43.919184145715,  977.67643678781 956.80875813294, 964.45215205885 970.0330428619 C 951.2278673299 983.25732759086, 48.165514104555 980.34555847623, 30.330928277428 962.5109726491 C 12.4963424503 944.67638682197, 35.547847941145 46.830953260348, 42.099328449069 40.279472752424"  style="fill:rgb(181,225,165);"/><path filter="url(#blur)" d="M 63.220404628833 60.487534111737 C 73.058738490381 50.649200250189, 936.59740400336 13.117778482063, 963.01515233529 39.535526813996 C 989.43290066723 65.95327514593,  966.47678832362 935.13987306091, 946.61792923271 954.99873215181 C 926.75907014181 974.85759124271, 72.329973019155 970.48499841536, 45.547841951609 943.70286734781 C 18.765710884063 916.92073628027, 53.382070767286 70.325867973284, 63.220404628833 60.487534111737"  style="fill:rgb(184,221,159);"/><path filter="url(#blur)" d="M 89.326054787021 85.464697951847 C 103.22693939365 71.563813345221, 910.41652142397 18.534512808834, 947.74297083065 55.860962215514 C 985.06942023733 93.187411622195,  952.63402282187 908.35713111187, 924.57482981961 936.41632411414 C 896.51563681734 964.4755171164, 102.1972442376 958.29734618012, 64.355947252897 920.45604919542 C 26.514650268193 882.61475221072, 75.425170180395 99.365582558473, 89.326054787021 85.464697951847"  style="fill:rgb(188,218,154);"/><path filter="url(#blur)" d="M 121.59263838254 116.33647245822 C 140.51483571008 97.414275130681, 878.05695055584 25.229596436723, 928.86655449091 76.039200371791 C 979.67615842597 126.84880430686,  935.52436466171 875.25366206287, 897.329558945 913.44846777957 C 859.1347532283 951.64327349628, 139.1131914636 943.23340801737, 87.602765405289 891.72298195906 C 36.092339346979 840.21255590075, 102.670441055 135.25866978577, 121.59263838254 116.33647245822"  style="fill:rgb(193,214,148);"/><path filter="url(#blur)" d="M 161.4741357066 154.49398574811 C 186.6026755572 129.36544589751, 838.06052096283 33.504719800794, 905.53530389498 100.97950273295 C 973.01008682714 168.4542856651,  914.37682717575 834.3377743183, 863.65440414399 885.06019735005 C 812.93198111223 935.78262038181, 184.74130223493 924.61438044821, 116.33583264165 856.20891085493 C 47.930363048358 787.80344126164, 136.34559585601 179.6225255987, 161.4741357066 154.49398574811"  style="fill:rgb(197,209,143);"/><path filter="url(#blur)" d="M 210.76766639915 201.6566721744 C 243.56724560823 168.85709296531, 788.62493398587 43.732772278785, 876.69787815842 131.80571645134 C 964.77082233098 219.87866062389,  888.2384708431 783.76573706601, 822.03191280994 849.97229509917 C 755.82535477678 916.17885313233, 241.1376471483 901.60126237273, 151.84990374578 812.31351897021 C 62.562160343262 723.02577556769, 177.96808719006 234.45625138349, 210.76766639915 201.6566721744"  style="fill:rgb(202,205,139);"/><path filter="url(#blur)" d="M 271.69447033513 259.9497525973 C 313.97545419131 217.66876874111, 727.52254848235 56.374645141583, 841.05481994804 169.90691660727 C 954.58709141373 283.43918807296,  855.93146241596 721.25869902218, 770.58651352106 806.60364791707 C 685.24156462616 891.94859681197, 310.84352946123 873.15704843144, 195.74529563049 758.05881460071 C 80.647061799764 642.96058076998, 229.41348647894 302.23073645348, 271.69447033513 259.9497525973"  style="fill:rgb(201,194,134);"/><path filter="url(#blur)" d="M 347 332 C 401 278, 652 72, 797 217 C 942 362,  816 644, 707 753 C 598 862, 397 838, 250 691 C 103 544, 293 386, 347 332"  style="fill: rgb(196,180,130);"/></svg>